<?xml version="1.0" standalone="no"?>
<!DOCTYPE svg PUBLIC "-//W3C//DTD SVG 20010904//EN"
 "http://www.w3.org/TR/2001/REC-SVG-20010904/DTD/svg10.dtd">
<svg version="1.0" xmlns="http://www.w3.org/2000/svg"
 width="300.000000pt" height="73.000000pt" viewBox="0 0 300.000000 73.000000"
 preserveAspectRatio="xMidYMid meet">
<metadata>
Created by potrace 1.10, written by Peter Selinger 2001-2011
</metadata>
<g transform="translate(0.000000,73.000000) scale(0.050000,-0.050000)"
fill="#ffffff" stroke="none">
<path d="M933 1342 c-86 -159 -76 -281 32 -377 293 -261 387 -389 413 -563
l13 -92 57 95 c120 203 62 404 -200 695 -85 94 -178 208 -208 254 l-54 85 -53
-97z"/>
<path d="M302 1075 c-10 -25 -77 -197 -150 -382 -72 -185 -132 -340 -132 -345
0 -63 155 3 181 77 l29 85 168 0 168 0 31 -85 c29 -79 183 -137 183 -69 0 15
-206 533 -273 689 -41 94 -173 113 -205 30z m156 -281 c57 -155 57 -154 -67
-154 l-109 0 53 150 c59 168 63 168 123 4z"/>
<path d="M1700 730 l0 -390 300 0 300 0 0 60 0 60 -221 0 -221 0 6 115 6 115
196 6 197 5 -7 55 -6 54 -195 6 -195 5 0 90 0 89 210 0 210 0 0 60 0 60 -290
0 -290 0 0 -390z"/>
<path d="M2380 1105 c0 -8 60 -184 134 -390 l135 -375 80 0 81 1 135 375 c159
441 153 404 60 404 l-75 -1 -89 -274 c-49 -151 -95 -282 -102 -291 -7 -9 -57
115 -111 275 l-98 291 -75 0 c-41 0 -75 -7 -75 -15z"/>
<path d="M3180 730 l0 -390 300 0 300 0 0 60 0 60 -220 0 -220 0 0 121 0 122
155 -3 c236 -4 225 -7 225 59 l0 58 -190 -3 -190 -4 0 95 0 95 210 0 210 0 0
60 0 60 -290 0 -290 0 0 -390z"/>
<path d="M3920 730 l0 -390 70 0 70 0 0 251 c0 138 8 247 17 241 9 -6 83 -119
164 -251 147 -239 148 -241 223 -241 l76 0 0 390 0 390 -69 0 -70 0 -5 -263
-6 -263 -160 263 c-159 261 -160 262 -235 263 l-75 0 0 -390z"/>
<path d="M4660 1060 c0 -60 0 -60 120 -60 l120 0 0 -330 0 -330 70 0 70 0 0
330 0 330 120 0 c120 0 120 0 120 60 l0 60 -310 0 -310 0 0 -60z"/>
<path d="M5520 1107 c-233 -93 -168 -338 112 -418 146 -41 208 -79 208 -126 0
-121 -238 -143 -310 -29 -48 77 -170 97 -170 29 0 -173 307 -293 498 -194 202
104 153 371 -80 430 -149 38 -223 70 -245 106 -62 98 180 143 257 47 62 -78
180 -76 161 3 -32 129 -274 215 -431 152z"/>
<path d="M963 689 c-55 -122 -32 -195 96 -307 83 -72 137 -140 178 -225 57
-120 59 -121 84 -75 70 131 26 255 -169 478 -72 83 -131 157 -132 165 -1 33
-35 12 -57 -36z"/>
</g>
</svg>
